<svg width="17" height="16" viewBox="0 0 17 16" fill="none" xmlns="http://www.w3.org/2000/svg">
<g clip-path="url(#clip0_66_65)">
<path d="M7.37187 3.30938L11.2094 7.14687C11.4344 7.37187 11.5625 7.68125 11.5625 8C11.5625 8.31875 11.4344 8.62812 11.2094 8.85312L7.37187 12.6906C7.17188 12.8906 6.90312 13 6.62187 13C6.0375 13 5.5625 12.525 5.5625 11.9406V10H1.5625C1.00937 10 0.5625 9.55313 0.5625 9V7C0.5625 6.44688 1.00937 6 1.5625 6H5.5625V4.05937C5.5625 3.475 6.0375 3 6.62187 3C6.90312 3 7.17188 3.1125 7.37187 3.30938ZM11.5625 13H13.5625C14.1156 13 14.5625 12.5531 14.5625 12V4C14.5625 3.44688 14.1156 3 13.5625 3H11.5625C11.0094 3 10.5625 2.55313 10.5625 2C10.5625 1.44687 11.0094 1 11.5625 1H13.5625C15.2188 1 16.5625 2.34375 16.5625 4V12C16.5625 13.6562 15.2188 15 13.5625 15H11.5625C11.0094 15 10.5625 14.5531 10.5625 14C10.5625 13.4469 11.0094 13 11.5625 13Z" fill="white"/>
</g>
<defs>
<clipPath id="clip0_66_65">
<path d="M0.5625 0H16.5625V16H0.5625V0Z" fill="white"/>
</clipPath>
</defs>
</svg>
