<svg width="16" height="21" viewBox="0 0 16 21" fill="none" xmlns="http://www.w3.org/2000/svg">
<g clip-path="url(#clip0_49_95)">
<path d="M13.2148 10.9961C13.207 9.5625 13.8555 8.48047 15.168 7.68359C14.4336 6.63281 13.3242 6.05469 11.8594 5.94141C10.4727 5.83203 8.95703 6.75 8.40234 6.75C7.81641 6.75 6.47266 5.98047 5.41797 5.98047C3.23828 6.01563 0.921875 7.71875 0.921875 11.1836C0.921875 12.207 1.10937 13.2643 1.48437 14.3555C1.98437 15.7891 3.78906 19.3047 5.67187 19.2461C6.65625 19.2227 7.35156 18.5469 8.63281 18.5469C9.875 18.5469 10.5195 19.2461 11.6172 19.2461C13.5156 19.2187 15.1484 16.0234 15.625 14.5859C13.0781 13.3867 13.2148 11.0703 13.2148 10.9961ZM11.0039 4.58203C12.0703 3.31641 11.9727 2.16406 11.9414 1.75C11 1.80469 9.91016 2.39063 9.28906 3.11328C8.60547 3.88672 8.20313 4.84375 8.28906 5.92188C9.30859 6 10.2383 5.47656 11.0039 4.58203Z" fill="white"/>
</g>
<defs>
<clipPath id="clip0_49_95">
<path d="M0.765625 0.5H15.7656V20.5H0.765625V0.5Z" fill="white"/>
</clipPath>
</defs>
</svg>
