<svg width="20" height="21" viewBox="0 0 20 21" fill="none" xmlns="http://www.w3.org/2000/svg">
<g clip-path="url(#clip0_49_92)">
<path d="M19.25 10.7266C19.25 16.2539 15.4648 20.1875 9.875 20.1875C4.51563 20.1875 0.1875 15.8594 0.1875 10.5C0.1875 5.14063 4.51563 0.8125 9.875 0.8125C12.4844 0.8125 14.6797 1.76953 16.3711 3.34766L13.7344 5.88281C10.2852 2.55469 3.87109 5.05469 3.87109 10.5C3.87109 13.8789 6.57031 16.6172 9.875 16.6172C13.7109 16.6172 15.1484 13.8672 15.375 12.4414H9.875V9.10937H19.0977C19.1875 9.60547 19.25 10.082 19.25 10.7266Z" fill="#EF4444"/>
</g>
<defs>
<clipPath id="clip0_49_92">
<path d="M0.1875 0.5H19.25V20.5H0.1875V0.5Z" fill="white"/>
</clipPath>
</defs>
</svg>
