<svg width="12" height="13" viewBox="0 0 12 13" fill="none" xmlns="http://www.w3.org/2000/svg">
<g clip-path="url(#clip0_70_582)">
<path d="M6 1.75391C3.30703 1.75391 1.125 3.93594 1.125 6.62891V7.56641C1.125 7.87813 0.874219 8.12891 0.5625 8.12891C0.250781 8.12891 0 7.87813 0 7.56641V6.62891C0 3.31484 2.68594 0.628906 6 0.628906C9.31406 0.628906 12 3.31484 12 6.62891V10.0063C12 11.1453 11.0766 12.0688 9.93516 12.0688L7.35 12.0664C7.15547 12.4016 6.79219 12.6289 6.375 12.6289H5.625C5.00391 12.6289 4.5 12.125 4.5 11.5039C4.5 10.8828 5.00391 10.3789 5.625 10.3789H6.375C6.79219 10.3789 7.15547 10.6062 7.35 10.9414L9.9375 10.9438C10.4555 10.9438 10.875 10.5242 10.875 10.0063V6.62891C10.875 3.93594 8.69297 1.75391 6 1.75391ZM3.375 5.50391H3.75C4.16484 5.50391 4.5 5.83906 4.5 6.25391V8.87891C4.5 9.29375 4.16484 9.62891 3.75 9.62891H3.375C2.54766 9.62891 1.875 8.95625 1.875 8.12891V7.00391C1.875 6.17656 2.54766 5.50391 3.375 5.50391ZM8.625 5.50391C9.45234 5.50391 10.125 6.17656 10.125 7.00391V8.12891C10.125 8.95625 9.45234 9.62891 8.625 9.62891H8.25C7.83516 9.62891 7.5 9.29375 7.5 8.87891V6.25391C7.5 5.83906 7.83516 5.50391 8.25 5.50391H8.625Z" fill="#3B82F6"/>
</g>
<defs>
<clipPath id="clip0_70_582">
<path d="M0 0.628906H12V12.6289H0V0.628906Z" fill="white"/>
</clipPath>
</defs>
</svg>
